<mxfile host="app.diagrams.net" agent="Mozilla/5.0 (X11; Linux x86_64) AppleWebKit/537.36 (KHTML, like Gecko) Chrome/129.0.0.0 Safari/537.36" version="25.0.3">
  <diagram name="Page-1" id="FIavwFqXX8DvZRv2D7Bb">
    <mxGraphModel dx="1434" dy="688" grid="1" gridSize="10" guides="1" tooltips="1" connect="1" arrows="1" fold="1" page="1" pageScale="1" pageWidth="850" pageHeight="1100" math="0" shadow="0">
      <root>
        <mxCell id="0" />
        <mxCell id="1" parent="0" />
        <mxCell id="9U3KtG-cp8fkpg_vPS3K-1" value="" style="ellipse;html=1;shape=startState;fillColor=#000000;strokeColor=#ff0000;" vertex="1" parent="1">
          <mxGeometry x="60" y="110" width="30" height="30" as="geometry" />
        </mxCell>
        <mxCell id="9U3KtG-cp8fkpg_vPS3K-2" value="" style="edgeStyle=orthogonalEdgeStyle;html=1;verticalAlign=bottom;endArrow=open;endSize=8;strokeColor=#ff0000;rounded=0;" edge="1" source="9U3KtG-cp8fkpg_vPS3K-1" parent="1">
          <mxGeometry relative="1" as="geometry">
            <mxPoint x="75" y="200" as="targetPoint" />
          </mxGeometry>
        </mxCell>
        <mxCell id="9U3KtG-cp8fkpg_vPS3K-3" value="" style="ellipse;html=1;shape=endState;fillColor=#000000;strokeColor=#ff0000;" vertex="1" parent="1">
          <mxGeometry x="60" y="260" width="30" height="30" as="geometry" />
        </mxCell>
        <mxCell id="9U3KtG-cp8fkpg_vPS3K-4" value="Object" style="html=1;whiteSpace=wrap;rounded=1;" vertex="1" parent="1">
          <mxGeometry x="30" y="350" width="110" height="50" as="geometry" />
        </mxCell>
        <mxCell id="9U3KtG-cp8fkpg_vPS3K-5" value="" style="endArrow=open;endFill=1;endSize=12;html=1;rounded=0;" edge="1" parent="1">
          <mxGeometry width="160" relative="1" as="geometry">
            <mxPoint x="30" y="440" as="sourcePoint" />
            <mxPoint x="190" y="440" as="targetPoint" />
          </mxGeometry>
        </mxCell>
      </root>
    </mxGraphModel>
  </diagram>
</mxfile>
